<?xml version="1.0" encoding="UTF-8"?>
<svg xmlns="http://www.w3.org/2000/svg" xmlns:xlink="http://www.w3.org/1999/xlink" width="0" height="0">
<defs>
<symbol xml:space="preserve" viewBox="0 0 83.69 122.88" id="backpack"><path d="m9.24 11.3 5.89 12.31c4.65-4.09 9.16-6.01 11.76-6.89l-5.4-11.38-.01-.02c-.3-.62-.83-1.06-1.45-1.27-.63-.21-1.33-.2-1.97.1l-.02.01-7.62 3.71c-.64.32-1.08.85-1.29 1.46-.22.62-.2 1.33.11 1.97zm68.65-4.22c.25.2.45.46.59.78 1.48 3.59 2.11 8.08 2.11 12.81 0 5.08-.72 10.5-1.89 15.4 3.19 5.9 5 12.64 5 19.79v57.4c0 2.65-1.08 5.06-2.83 6.8a9.609 9.609 0 0 1-6.8 2.83H9.58c-2.64 0-5.03-1.08-6.76-2.81C1.08 118.33 0 115.94 0 113.3V55.85c0-7.18 1.83-13.94 5.04-19.86C3.98 31.76 3.47 27 3.47 22.32c0-5.03.59-10.01 1.73-14.22.11-.42.36-.78.67-1.03.62-1.14 1.58-2.1 2.82-2.71L16.31.65l.06-.03a6.53 6.53 0 0 1 4.9-.27c1.56.54 2.92 1.66 3.7 3.26l.03.06 5.63 11.87c3.57-1 7.33-1.53 11.21-1.53 3.9 0 7.68.54 11.27 1.55l5.64-11.88.02-.03.01-.02v-.01a6.461 6.461 0 0 1 3.7-3.26 6.53 6.53 0 0 1 4.9.27l.06.03 7.62 3.71c1.25.6 2.21 1.57 2.83 2.71zM8.06 31.23c1.24-1.7 2.61-3.3 4.09-4.79l-4.53-9.47c-.16 1.75-.24 3.55-.24 5.35.01 3.02.23 6.05.68 8.91zm67.63.08c.62-3.5.98-7.15.98-10.64 0-1.51-.07-2.97-.21-4.38l-4.87 10.19c1.48 1.5 2.85 3.12 4.1 4.83zM54.07 19.95l-.08-.02a.31.31 0 0 0-.08-.02c-.23-.06-.39-.11-.57-.2h-.01a37.551 37.551 0 0 0-11.47-1.78c-3.93 0-7.72.61-11.3 1.73l-.12.06a4.671 4.671 0 0 1-.65.22c-.11.03-.25.07-.41.11a38.164 38.164 0 0 0-14.31 9.02C8.18 35.94 3.91 45.42 3.91 55.85v57.45c0 1.55.64 2.97 1.66 4a5.63 5.63 0 0 0 4 1.66h64.49c1.57 0 3-.64 4.03-1.68a5.677 5.677 0 0 0 1.68-4.03v-57.4c0-10.43-4.27-19.91-11.14-26.79a38.15 38.15 0 0 0-14.56-9.11zm14.57 3.66 5.89-12.31c.31-.64.33-1.35.11-1.97-.21-.61-.65-1.14-1.28-1.45l-7.62-3.71-.02-.01c-.63-.3-1.34-.32-1.97-.1-.62.21-1.15.65-1.45 1.27l-.01.01v.01l-5.4 11.38c2.59.87 7.1 2.79 11.75 6.88zM12.32 52.99a1.946 1.946 0 0 1-2.39 1.37 1.954 1.954 0 0 1-1.37-2.4c3-10.89 9-18.21 16.26-22.42 5.52-3.2 11.76-4.58 17.95-4.35 6.17.23 12.29 2.07 17.61 5.3C67.88 35.06 73.8 42.42 76 52.01c.24 1.05-.42 2.1-1.47 2.34-1.05.24-2.1-.42-2.34-1.47-1.95-8.48-7.19-15-13.85-19.06a32.78 32.78 0 0 0-15.71-4.74c-5.48-.2-10.99 1.01-15.85 3.83-6.43 3.73-11.77 10.28-14.46 20.08zm8.26 13.07h42.75c2.69 0 5.14 1.1 6.91 2.87a9.76 9.76 0 0 1 2.87 6.91v26.24c0 2.69-1.1 5.14-2.87 6.91a9.76 9.76 0 0 1-6.91 2.87H20.58a9.76 9.76 0 0 1-6.91-2.87 9.76 9.76 0 0 1-2.87-6.91V75.85c0-2.69 1.1-5.14 2.87-6.91a9.727 9.727 0 0 1 6.91-2.88zm8.14-15.61H55.8c1.27 0 2.31 1.04 2.31 2.31v6.33c0 1.27-1.04 2.31-2.31 2.31H28.72c-1.27 0-2.31-1.04-2.31-2.31v-6.33c0-1.27 1.04-2.31 2.31-2.31zm-4.51 34.34v5.98c0 1.02-.83 1.85-1.85 1.85s-1.85-.83-1.85-1.85v-5.98H14.7v17.3c0 1.61.66 3.08 1.73 4.15a5.842 5.842 0 0 0 4.15 1.73h42.75c1.61 0 3.08-.66 4.15-1.73a5.842 5.842 0 0 0 1.73-4.15v-17.3h-45zm-9.5-3.91H69.2v-5.03c0-1.61-.66-3.08-1.73-4.15a5.825 5.825 0 0 0-4.15-1.73H20.58c-1.61 0-3.08.66-4.15 1.73a5.866 5.866 0 0 0-1.73 4.15v5.03h.01z"></path></symbol>
<symbol fill="currentColor" role="img" viewBox="0 0 24 24" id="github"><title>GitHub</title><path d="M12 .297c-6.63 0-12 5.373-12 12 0 5.303 3.438 9.8 8.205 11.385.6.113.82-.258.82-.577 0-.285-.01-1.04-.015-2.04-3.338.724-4.042-1.61-4.042-1.61C4.422 18.07 3.633 17.7 3.633 17.7c-1.087-.744.084-.729.084-.729 1.205.084 1.838 1.236 1.838 1.236 1.07 1.835 2.809 1.305 3.495.998.108-.776.417-1.305.76-1.605-2.665-.3-5.466-1.332-5.466-5.93 0-1.31.465-2.38 1.235-3.22-.135-.303-.54-1.523.105-3.176 0 0 1.005-.322 3.3 1.23.96-.267 1.98-.399 3-.405 1.02.006 2.04.138 3 .405 2.28-1.552 3.285-1.23 3.285-1.23.645 1.653.24 2.873.12 3.176.765.84 1.23 1.91 1.23 3.22 0 4.61-2.805 5.625-5.475 5.92.42.36.81 1.096.81 2.22 0 1.606-.015 2.896-.015 3.286 0 .315.21.69.825.57C20.565 22.092 24 17.592 24 12.297c0-6.627-5.373-12-12-12"></path></symbol>
<symbol fill="currentColor" role="img" viewBox="0 0 24 24" id="instagram"><title>Instagram</title><path d="M12 0C8.74 0 8.333.015 7.053.072 5.775.132 4.905.333 4.14.63c-.789.306-1.459.717-2.126 1.384S.935 3.35.63 4.14C.333 4.905.131 5.775.072 7.053.012 8.333 0 8.74 0 12s.015 3.667.072 4.947c.06 1.277.261 2.148.558 2.913.306.788.717 1.459 1.384 2.126.667.666 1.336 1.079 2.126 1.384.766.296 1.636.499 2.913.558C8.333 23.988 8.74 24 12 24s3.667-.015 4.947-.072c1.277-.06 2.148-.262 2.913-.558.788-.306 1.459-.718 2.126-1.384.666-.667 1.079-1.335 1.384-2.126.296-.765.499-1.636.558-2.913.06-1.28.072-1.687.072-4.947s-.015-3.667-.072-4.947c-.06-1.277-.262-2.149-.558-2.913-.306-.789-.718-1.459-1.384-2.126C21.319 1.347 20.651.935 19.86.63c-.765-.297-1.636-.499-2.913-.558C15.667.012 15.26 0 12 0zm0 2.16c3.203 0 3.585.016 4.85.071 1.17.055 1.805.249 2.227.415.562.217.96.477 1.382.896.419.42.679.819.896 1.381.164.422.36 1.057.413 2.227.057 1.266.07 1.646.07 4.85s-.015 3.585-.074 4.85c-.061 1.17-.256 1.805-.421 2.227-.224.562-.479.96-.899 1.382-.419.419-.824.679-1.38.896-.42.164-1.065.36-2.235.413-1.274.057-1.649.07-4.859.07-3.211 0-3.586-.015-4.859-.074-1.171-.061-1.816-.256-2.236-.421-.569-.224-.96-.479-1.379-.899-.421-.419-.69-.824-.9-1.38-.165-.42-.359-1.065-.42-2.235-.045-1.26-.061-1.649-.061-4.844 0-3.196.016-3.586.061-4.861.061-1.17.255-1.814.42-2.234.21-.57.479-.96.9-1.381.419-.419.81-.689 1.379-.898.42-.166 1.051-.361 2.221-.421 1.275-.045 1.65-.06 4.859-.06l.045.03zm0 3.678c-3.405 0-6.162 2.76-6.162 6.162 0 3.405 2.76 6.162 6.162 6.162 3.405 0 6.162-2.76 6.162-6.162 0-3.405-2.76-6.162-6.162-6.162zM12 16c-2.21 0-4-1.79-4-4s1.79-4 4-4 4 1.79 4 4-1.79 4-4 4zm7.846-10.405c0 .795-.646 1.44-1.44 1.44-.795 0-1.44-.646-1.44-1.44 0-.794.646-1.439 1.44-1.439.793-.001 1.44.645 1.44 1.439z"></path></symbol>
<symbol fill="currentColor" role="img" viewBox="0 0 24 24" id="linkedin"><title>LinkedIn</title><path d="M20.447 20.452h-3.554v-5.569c0-1.328-.027-3.037-1.852-3.037-1.853 0-2.136 1.445-2.136 2.939v5.667H9.351V9h3.414v1.561h.046c.477-.9 1.637-1.85 3.37-1.85 3.601 0 4.267 2.37 4.267 5.455v6.286zM5.337 7.433c-1.144 0-2.063-.926-2.063-2.065 0-1.138.92-2.063 2.063-2.063 1.14 0 2.064.925 2.064 2.063 0 1.139-.925 2.065-2.064 2.065zm1.782 13.019H3.555V9h3.564v11.452zM22.225 0H1.771C.792 0 0 .774 0 1.729v20.542C0 23.227.792 24 1.771 24h20.451C23.2 24 24 23.227 24 22.271V1.729C24 .774 23.2 0 22.222 0h.003z"></path></symbol>
<symbol fill="currentColor" role="img" viewBox="0 0 24 24" id="reddit"><title>Reddit</title><path d="M12 0A12 12 0 0 0 0 12a12 12 0 0 0 12 12 12 12 0 0 0 12-12A12 12 0 0 0 12 0zm5.01 4.744c.688 0 1.25.561 1.25 1.249a1.25 1.25 0 0 1-2.498.056l-2.597-.547-.8 3.747c1.824.07 3.48.632 4.674 1.488.308-.309.73-.491 1.207-.491.968 0 1.754.786 1.754 1.754 0 .716-.435 1.333-1.01 1.614a3.111 3.111 0 0 1 .042.52c0 2.694-3.13 4.87-7.004 4.87-3.874 0-7.004-2.176-7.004-4.87 0-.183.015-.366.043-.534A1.748 1.748 0 0 1 4.028 12c0-.968.786-1.754 1.754-1.754.463 0 .898.196 1.207.49 1.207-.883 2.878-1.43 4.744-1.487l.885-4.182a.342.342 0 0 1 .14-.197.35.35 0 0 1 .238-.042l2.906.617a1.214 1.214 0 0 1 1.108-.701zM9.25 12C8.561 12 8 12.562 8 13.25c0 .687.561 1.248 1.25 1.248.687 0 1.248-.561 1.248-1.249 0-.688-.561-1.249-1.249-1.249zm5.5 0c-.687 0-1.248.561-1.248 1.25 0 .687.561 1.248 1.249 1.248.688 0 1.249-.561 1.249-1.249 0-.687-.562-1.249-1.25-1.249zm-5.466 3.99a.327.327 0 0 0-.231.094.33.33 0 0 0 0 .463c.842.842 2.484.913 2.961.913.477 0 2.105-.056 2.961-.913a.361.361 0 0 0 .029-.463.33.33 0 0 0-.464 0c-.547.533-1.684.73-2.512.73-.828 0-1.979-.196-2.512-.73a.326.326 0 0 0-.232-.095z"></path></symbol>
<symbol fill="currentColor" role="img" viewBox="0 0 24 24" id="threads"><title>Threads</title><path d="M17.743 11.123a8.547 8.547 0 0 0-.315-.142c-.185-3.414-2.05-5.368-5.182-5.388h-.042c-1.874 0-3.431.8-4.39 2.255l1.722 1.181c.716-1.087 1.84-1.319 2.669-1.319h.028c1.031.007 1.81.307 2.313.892.367.425.612 1.014.733 1.756a13.176 13.176 0 0 0-2.96-.143c-2.977.172-4.892 1.908-4.763 4.321.065 1.224.675 2.277 1.717 2.965.88.582 2.015.866 3.195.802 1.557-.086 2.778-.68 3.63-1.766.648-.825 1.057-1.894 1.238-3.241.742.448 1.292 1.037 1.596 1.745.517 1.205.547 3.184-1.068 4.797-1.415 1.414-3.116 2.025-5.686 2.044-2.851-.02-5.008-.935-6.41-2.717-1.313-1.67-1.991-4.08-2.016-7.165.025-3.085.703-5.496 2.016-7.165 1.402-1.782 3.558-2.696 6.41-2.717 2.871.02 5.065.94 6.521 2.73.714.879 1.252 1.983 1.607 3.27l2.018-.538c-.43-1.585-1.107-2.95-2.027-4.083C18.43 1.2 15.7.024 12.185 0h-.014C8.66.024 5.963 1.205 4.15 3.51c-1.614 2.05-2.446 4.905-2.474 8.482v.016c.028 3.578.86 6.431 2.473 8.482 1.813 2.305 4.512 3.486 8.022 3.51h.014c3.12-.022 5.319-.839 7.13-2.649 2.371-2.368 2.3-5.336 1.518-7.158-.56-1.307-1.629-2.368-3.09-3.07zm-5.387 5.065c-1.305.074-2.66-.512-2.728-1.766-.05-.93.662-1.969 2.808-2.092.246-.015.487-.021.724-.021.78 0 1.508.075 2.171.22-.247 3.088-1.697 3.59-2.975 3.66z"></path></symbol>
<symbol fill="currentColor" role="img" viewBox="0 0 24 24" id="twitter"><title>Twitter</title><path d="M21.543 7.104c.015.211.015.423.015.636 0 6.507-4.954 14.01-14.01 14.01v-.003A13.94 13.94 0 0 1 0 19.539a9.88 9.88 0 0 0 7.287-2.041 4.93 4.93 0 0 1-4.6-3.42 4.916 4.916 0 0 0 2.223-.084A4.926 4.926 0 0 1 .96 9.167v-.062a4.887 4.887 0 0 0 2.235.616A4.928 4.928 0 0 1 1.67 3.148 13.98 13.98 0 0 0 11.82 8.292a4.929 4.929 0 0 1 8.39-4.49 9.868 9.868 0 0 0 3.128-1.196 4.941 4.941 0 0 1-2.165 2.724A9.828 9.828 0 0 0 24 4.555a10.019 10.019 0 0 1-2.457 2.549z"></path></symbol>
<symbol fill="currentColor" role="img" viewBox="0 0 24 24" id="youtube"><title>YouTube</title><path d="M23.498 6.186a3.016 3.016 0 0 0-2.122-2.136C19.505 3.545 12 3.545 12 3.545s-7.505 0-9.377.505A3.017 3.017 0 0 0 .502 6.186C0 8.07 0 12 0 12s0 3.93.502 5.814a3.016 3.016 0 0 0 2.122 2.136c1.871.505 9.376.505 9.376.505s7.505 0 9.377-.505a3.015 3.015 0 0 0 2.122-2.136C24 15.93 24 12 24 12s0-3.93-.502-5.814zM9.545 15.568V8.432L15.818 12l-6.273 3.568z"></path></symbol>
</defs>
</svg>